<?xml version="1.0" standalone="no"?>
<!DOCTYPE svg PUBLIC "-//W3C//DTD SVG 20010904//EN"
 "http://www.w3.org/TR/2001/REC-SVG-20010904/DTD/svg10.dtd">
<svg version="1.0" xmlns="http://www.w3.org/2000/svg"
 width="260.000000pt" height="260.000000pt" viewBox="0 0 260.000000 260.000000"
 preserveAspectRatio="xMidYMid meet">
<metadata>
Created by potrace 1.11, written by Peter Selinger 2001-2013
</metadata>
<g transform="translate(0.000000,260.000000) scale(0.100000,-0.100000)"
fill="#000000" stroke="none">
<path d="M1664 2468 c-40 -37 -45 -45 -43 -82 3 -71 -9 -103 -49 -128 -20 -12
-41 -27 -45 -32 -6 -8 -10 -7 -14 2 -14 36 -101 -15 -87 -51 3 -10 10 -17 15
-17 16 0 10 -29 -11 -50 -11 -11 -20 -33 -20 -48 0 -16 -7 -44 -17 -62 -14
-29 -17 -31 -28 -17 -16 23 -32 21 -47 -4 -7 -11 -35 -32 -62 -46 -26 -13 -66
-38 -89 -54 -24 -17 -53 -29 -72 -29 -17 0 -40 -7 -51 -15 -10 -8 -33 -15 -50
-15 -17 0 -43 -9 -57 -20 -16 -12 -40 -20 -65 -20 -23 0 -43 -4 -47 -10 -3 -5
-7 -32 -9 -59 -3 -37 -12 -60 -34 -88 -16 -21 -37 -53 -47 -72 -15 -30 -15
-38 -4 -55 7 -12 14 -47 15 -79 1 -33 9 -68 18 -82 9 -13 16 -36 16 -50 0 -14
9 -43 20 -65 13 -25 20 -58 20 -92 -1 -47 -7 -62 -50 -128 -28 -41 -50 -81
-50 -88 0 -7 -16 -29 -35 -49 -19 -20 -35 -46 -35 -57 -1 -12 -7 -32 -15 -46
-16 -29 -20 -116 -5 -125 6 -3 10 -19 10 -34 0 -15 9 -36 19 -45 11 -10 22
-28 25 -42 4 -13 11 -24 16 -24 13 0 13 -47 0 -55 -14 -8 -13 -75 1 -75 7 0 9
-9 6 -22 -6 -23 21 -80 70 -146 22 -29 91 -72 118 -72 5 0 27 -9 48 -20 53
-29 96 -25 173 15 46 24 80 35 110 35 36 0 49 6 79 35 19 20 37 48 40 63 3 15
15 44 25 64 11 20 20 43 20 51 0 8 7 20 15 27 8 7 15 29 15 49 0 20 6 45 14
56 7 11 16 46 20 77 4 32 12 60 17 63 5 4 9 14 9 23 0 10 9 34 20 55 11 20 20
46 20 56 0 11 4 22 9 26 5 3 15 30 22 61 7 30 16 57 21 60 4 3 8 15 8 26 0 11
8 39 19 62 10 23 29 75 41 116 12 41 35 103 51 138 16 34 29 70 29 80 1 9 7
28 15 42 9 15 14 54 15 97 0 63 4 80 35 136 39 71 46 136 19 175 -8 12 -14 35
-12 50 4 27 4 27 21 -11 20 -42 36 -52 72 -43 16 4 27 16 31 34 4 15 13 40 21
55 13 26 12 33 -16 90 -26 54 -30 75 -33 162 -3 75 -8 106 -21 125 -9 13 -17
33 -17 43 0 11 -21 51 -47 90 -27 39 -53 84 -60 99 -7 15 -17 28 -23 28 -6 0
-31 -19 -56 -42z m86 -80 c0 -5 13 -29 29 -52 17 -24 33 -56 37 -72 4 -16 12
-35 18 -43 6 -8 13 -67 16 -132 5 -114 6 -119 35 -149 25 -26 28 -33 17 -48
-7 -9 -17 -29 -23 -44 -12 -32 -29 -28 -29 5 0 23 -31 57 -52 57 -6 0 -20 -7
-30 -17 -23 -20 -24 -94 -2 -128 9 -14 14 -39 12 -62 -2 -31 -7 -37 -22 -35
-10 2 -15 -1 -12 -7 3 -5 -3 -25 -14 -43 -15 -26 -19 -50 -18 -109 1 -56 -3
-81 -15 -99 -9 -14 -17 -34 -17 -45 0 -11 -7 -29 -15 -39 -8 -11 -15 -28 -15
-38 0 -10 -9 -35 -20 -55 -11 -21 -20 -48 -20 -61 0 -12 -6 -25 -13 -28 -8 -3
-14 -21 -15 -41 -1 -20 -8 -46 -17 -59 -8 -13 -15 -31 -15 -41 0 -10 -6 -27
-14 -38 -7 -11 -16 -41 -19 -66 -3 -25 -13 -59 -21 -75 -44 -88 -74 -172 -81
-227 -3 -26 -13 -59 -21 -75 -7 -15 -14 -41 -14 -59 0 -17 -6 -44 -14 -60 -8
-15 -23 -47 -35 -69 -12 -23 -21 -49 -21 -58 0 -8 -13 -31 -30 -49 -26 -30
-37 -35 -88 -39 -41 -4 -73 -15 -109 -37 -55 -34 -94 -39 -113 -16 -7 8 -20
15 -29 15 -9 0 -29 7 -45 15 -15 8 -34 15 -42 15 -7 0 -21 12 -31 27 -10 16
-23 34 -30 41 -7 7 -13 18 -13 24 0 6 -8 20 -17 30 -14 15 -17 37 -16 108 0
65 -3 93 -13 101 -8 6 -14 19 -14 29 0 9 -9 25 -20 35 -12 11 -20 31 -20 50 0
17 -5 36 -11 42 -9 9 -9 19 -1 40 6 15 14 44 17 63 4 19 20 49 35 65 16 17 40
53 55 80 14 28 35 64 45 80 11 17 28 47 38 69 17 36 17 43 2 102 -8 35 -21 69
-27 76 -7 6 -13 32 -13 57 0 28 -6 51 -17 63 -13 14 -18 41 -21 99 -3 79 -3
81 37 142 29 43 41 73 41 98 0 35 2 37 41 42 22 3 48 12 58 21 10 9 31 16 47
16 16 0 39 6 50 14 11 8 38 18 60 21 21 4 45 12 53 18 7 6 21 16 31 22 10 5
40 23 67 40 34 21 65 31 107 35 41 3 61 10 63 20 4 13 3 13 -6 0 -5 -8 -13
-11 -17 -7 -4 4 2 21 14 37 13 17 22 44 22 64 0 27 5 36 21 41 19 6 21 13 17
57 -3 27 -2 46 1 41 10 -14 52 -13 57 2 4 9 17 11 45 8 25 -4 39 -2 39 6 0 6
-10 12 -22 12 -21 2 -21 2 -3 6 22 4 41 38 51 93 4 19 11 41 17 47 5 7 6 20 3
29 -4 10 1 24 11 34 17 17 19 17 41 -3 12 -11 22 -25 22 -29z"/>
<path d="M1143 1755 c-29 -14 -53 -29 -53 -34 0 -5 -16 -25 -36 -43 -48 -46
-56 -115 -24 -211 12 -37 29 -72 36 -78 11 -9 9 -19 -14 -53 -27 -41 -39 -64
-87 -169 l-26 -58 21 -43 c11 -24 30 -51 40 -61 20 -18 21 -18 47 1 15 11 31
35 35 53 5 18 22 54 38 80 17 27 30 53 30 60 0 32 24 1 67 -86 66 -135 90
-150 136 -90 37 49 44 96 18 126 -12 13 -21 32 -21 42 0 10 -5 21 -11 24 -5 4
-14 17 -20 28 -5 12 -13 29 -18 37 -5 8 -19 34 -30 58 l-21 42 31 58 c22 41
33 81 40 140 13 101 2 142 -44 171 -52 32 -77 33 -134 6z m33 -177 c-9 -12
-16 -31 -16 -42 0 -28 -16 -8 -24 29 -5 26 -2 32 21 46 34 18 43 2 19 -33z"/>
<path d="M1761 1694 c0 -11 3 -14 6 -6 3 7 2 16 -1 19 -3 4 -6 -2 -5 -13z"/>
<path d="M831 1584 c0 -11 3 -14 6 -6 3 7 2 16 -1 19 -3 4 -6 -2 -5 -13z"/>
<path d="M801 1534 c0 -11 3 -14 6 -6 3 7 2 16 -1 19 -3 4 -6 -2 -5 -13z"/>
<path d="M802 1440 c0 -14 2 -19 5 -12 2 6 2 18 0 25 -3 6 -5 1 -5 -13z"/>
</g>
</svg>
